<?xml version="1.0" encoding="UTF-8"?>
<svg id="Ebene_1" data-name="Ebene 1" xmlns="http://www.w3.org/2000/svg" viewBox="0 0 339.41 323.27">
  <path d="m18.38,23.24c-2.52,1.86-3.57,2.71-5.83,5.37-6.3,7.38-4.29,23.17-7.19,33.86-3.07,14.22-4.06,27.95-4.44,42.52-3.17,21.27,2.22,43.21,10.45,62.94,2.04,4.77,5.48,9.25,5.24,14.94-1.32,21.43,11.35,39.97,20.6,58.31,2.98,5.73,6.94,11.1,7.98,17.69,5.17,19.08,26.1,28.61,43.18,34.9,31.18,8.08,59.21,27.42,91.86,29,36.81,3.86,68.39-15.19,101.93-25.3,41.46-11.64,48.27-41.78,57.23-78.43-.49-14.02-1.95-28.04-3.06-42.06-1.16-7.73-3.77-15.17-3.48-23.2,2.5-29.84-8.97-57.73-17.8-85.62C287.58,9.5,223.2-1.65,164.46.18c-49.06,1.99-100.17.11-145.32,22.58" style="fill: #ce1b1c; stroke-width: 0px;"/>
</svg>